<?xml version="1.0" encoding="UTF-8"?>
<svg width="55px" height="49px" viewBox="0 0 55 49" version="1.1" xmlns="http://www.w3.org/2000/svg" xmlns:xlink="http://www.w3.org/1999/xlink">
    <!-- Generator: Sketch 45 (43475) - http://www.bohemiancoding.com/sketch -->
    <title>message</title>
    <desc>Created with Sketch.</desc>
    <defs></defs>
    <g id="Symbols" stroke="none" stroke-width="1" fill="none" fill-rule="evenodd">
        <g id="message" stroke="#3F4DAB" fill="#FFFFFF">
            <path d="M19.6911539,44.0532642 C22.1958158,44.723179 24.8699093,45.0853486 27.6471014,45.0853486 C41.8116044,45.0853486 53.2942028,35.6642224 53.2942028,24.0426743 C53.2942028,12.4211262 41.8116044,3 27.6471014,3 C13.4825984,3 2,12.4211262 2,24.0426743 C2,31.7825014 7.09301227,38.5463494 14.6793637,42.2012648 L14.4292299,42.1125062 C14.4333146,43.1768226 14.0702114,44.1281208 13.3399204,44.9664007 C12.6096293,45.8046807 11.9422458,46.6210091 11.3377697,47.4153859 C11.7117673,47.7091187 12.8545319,47.4903291 14.7660635,46.7590169 C16.6484129,46.0388691 18.2901097,45.1369516 19.6911539,44.0532642 Z" id="Combined-Shape"></path>
        </g>
    </g>
</svg>